<svg t="1650369606243" class="icon" viewBox="0 0 1024 1024" version="1.1" xmlns="http://www.w3.org/2000/svg" p-id="4267" width="48" height="48"><path d="M0 0h1024v1024H0z" fill="#FFFFFF" fill-opacity="0" p-id="4268"></path><path d="M515.806691 470.126394m-390.185873 0a390.185874 390.185874 0 1 0 780.371747 0 390.185874 390.185874 0 1 0-780.371747 0Z" fill="#E2E9F4" p-id="4269"></path><path d="M343.287435 908.173799l0.97832-21.995063a71.032862 71.032862 0 0 1 33.133442-8.386141c-15.91197 13.007465-13.924877 38.089755-24.713041 55.585308a42.726305 42.726305 0 0 1-31.332877 19.741502l-13.315807 8.153933a71.596253 71.596253 0 0 1 15.089725-58.013977c3.722944-4.453829 7.994052-8.424208 12.710543-11.812164 3.190007 8.412788 7.449695 16.726602 7.449695 16.726602z" fill="#E2E9F4" p-id="4270"></path><path d="M893.735019 587.703673c35.8971-27.347271 53.046245-73.297844 42.311375-117.131896-0.266468-1.09252-0.548164-2.177428-0.845085-3.262335-7.118513-26.018736-24.724461-50.75081-50.385368-59.064624-21.545874-6.981472-45.071227-1.61023-67.54974-4.389115-44.127167-5.447375-78.34171-41.150335-102.41142-78.535852-24.073517-37.385517-42.574037-79.232476-74.561666-110.116163C587.570439 164.296803 501.558245 153.333532 436.185933 186.470781c-65.372312 33.141056-107.01371 106.655881-105.239792 179.927078 1.777725 73.271197 45.272981 143.321933 108.445026 180.486661 23.205591 13.654602 50.042766 23.327405 76.75432 19.943257 23.175138-2.938766 44.233755-15.390454 67.302305-19.086751 36.266349-5.812818 72.304297 10.582602 103.671435 29.692193 31.367138 19.109591 61.668401 41.759405 97.31426 50.61377 34.614245 8.603123 77.492818-16.121338 109.297725-40.343316z" fill="#D9E1EE" p-id="4271"></path><path d="M606.596283 289.384684H248.919554A28.169517 28.169517 0 0 0 220.788104 317.519941v178.012312a28.169517 28.169517 0 0 0 28.135257 28.135256h357.669115a28.158097 28.158097 0 0 0 28.135256-28.135256V317.519941A28.158097 28.158097 0 0 0 606.596283 289.384684z" fill="#FFFFFF" p-id="4272"></path><path d="M428.252788 365.518513a25.436312 25.436312 0 0 1 25.436312 25.436312l-0.003806 7.263168H464.416357a3.806691 3.806691 0 0 1 3.806691 3.806691v43.263048a3.806691 3.806691 0 0 1-3.806691 3.806692H392.089219a3.806691 3.806691 0 0 1-3.806691-3.806692V402.024684a3.806691 3.806691 0 0 1 3.806691-3.806691l10.727257-0.003807v-7.263167A25.436312 25.436312 0 0 1 428.252788 365.518513z m0 9.082766a16.353546 16.353546 0 0 0-16.330706 15.584595l-0.019034 0.768951-0.003806 7.263168h32.703286v-7.263168a16.353546 16.353546 0 0 0-15.580788-16.334513l-0.768952-0.019033z" fill="#D9E1EE" p-id="4273"></path><path d="M605.850171 287.648833a31.458498 31.458498 0 0 1 31.405204 30.464951l0.015227 0.959287v178.019925a31.458498 31.458498 0 0 1-30.461145 31.405205l-0.959286 0.015227H248.181056a31.458498 31.458498 0 0 1-31.405205-30.464952l-0.015226-0.959286V319.069264a31.458498 31.458498 0 0 1 30.464951-31.405205l0.959286-0.015226h357.665309z m0 6.574156H248.181056a24.880535 24.880535 0 0 0-24.834855 23.959316l-0.015227 0.890766v178.016119a24.880535 24.880535 0 0 0 23.959316 24.834855l0.890766 0.015226h357.661502a24.880535 24.880535 0 0 0 24.834855-23.959316l0.019033-0.890765V319.076877a24.880535 24.880535 0 0 0-24.853888-24.850081z" fill="#3F3D56" p-id="4274"></path><path d="M622.302691 575.819182h-342.754498a11.172639 11.172639 0 0 1 0-22.341472h342.754498a11.172639 11.172639 0 0 1 0 22.345279zM553.797472 290.937814v37.572045c0 1.865279-3.266141 3.426022-7.666676 3.856178a30.563926 30.563926 0 0 1-2.405829 0.114201 20.152625 20.152625 0 0 1-7.12232-1.164848c-0.209368-0.083747-0.418736-0.178914-0.624298-0.262661-0.190335-0.110394-0.399703-0.205561-0.593843-0.315956-1.09252-0.650944-1.728238-1.412283-1.728238-2.226914v-37.572045h20.137397z" fill="#D9E1EE" p-id="4275"></path><path d="M831.198691 649.954498H681.740372A11.77029 11.77029 0 0 1 669.977695 638.191822v-74.390365a11.77029 11.77029 0 0 1 11.75887-11.75887h149.462126a11.77029 11.77029 0 0 1 11.75887 11.75887v74.390365a11.77029 11.77029 0 0 1-11.75887 11.758869z" fill="#FFFFFF" p-id="4276"></path><path d="M807.646691 685.03316h-100.686988a11.172639 11.172639 0 0 1 0-22.345279h100.686988a11.172639 11.172639 0 1 1 0 22.345279z" fill="#D9E1EE" p-id="4277"></path><path d="M832.203658 649.813651h-149.465933a13.155926 13.155926 0 0 1-13.140699-13.140699V562.286394a13.155926 13.155926 0 0 1 13.140699-13.140699h149.465933a13.155926 13.155926 0 0 1 13.140699 13.140699v74.390364a13.155926 13.155926 0 0 1-13.140699 13.140699z m-149.465933-97.908105a10.384654 10.384654 0 0 0-10.373234 10.377041v74.390365a10.384654 10.384654 0 0 0 10.373234 10.377041h149.465933a10.384654 10.384654 0 0 0 10.373234-10.377041V562.286394a10.384654 10.384654 0 0 0-10.373234-10.373234h-149.465933z" fill="#D9D8DD" p-id="4278"></path><path d="M757.531599 582.499926a12.112892 12.112892 0 0 1 12.112892 12.112892l-0.003807 3.456476H772.758364a3.806691 3.806691 0 0 1 3.806692 3.806691v16.616208a3.806691 3.806691 0 0 1-3.806692 3.806692h-30.453531a3.806691 3.806691 0 0 1-3.806692-3.806692v-16.612401a3.806691 3.806691 0 0 1 3.806692-3.806692l3.113873-0.003806v-3.456476A12.112892 12.112892 0 0 1 757.531599 582.499926z m0 4.324401a7.788491 7.788491 0 0 0-7.777071 7.423048l-0.007614 0.365443-0.003806 3.456476h15.573175v-3.456476a7.788491 7.788491 0 0 0-7.419242-7.777071l-0.365442-0.01142z" fill="#D9E1EE" p-id="4279"></path><path d="M343.706171 451.964669l-76.503078 0.513903s-43.567584-14.046691-63.328119-11.115539l-7.556283 29.680774 54.272 17.98281 94.455435-13.704089a13.521368 13.521368 0 1 0-1.343762-23.357859zM265.600476 945.292848h19.307539l9.185546-74.477919H265.592862z" fill="#FFC6A0" p-id="4280"></path><path d="M260.674617 938.98516h5.435955l21.214692-8.625963 11.374394 8.625963a24.233398 24.233398 0 0 1 24.233398 24.233398v0.787985H260.674617v-25.021383z" fill="#2F2E41" p-id="4281"></path><path d="M128.102781 927.112089l18.291152 6.193487 32.585279-67.591613-26.989442-9.139866z" fill="#FFC6A0" p-id="4282"></path><path d="M125.460937 919.56342l5.146647 1.743465 22.862988-1.370409 8.005473 11.819777a24.233398 24.233398 0 0 1 15.181085 30.727613l-0.251242 0.742305-58.969457-19.966097 8.024506-23.696654zM150.48232 624.502959s-2.253561 27.054156 3.384148 52.981532c5.633903 25.927375 17.765829 111.992862 17.765829 111.992862-24.568387 40.38519-38.809219 80.123242-41.496743 120.344744l34.579985 2.767464 49.517442-117.485918 5.01722-117.619152 36.072208 80.035687-1.853859 6.185874a6.966245 6.966245 0 0 0 2.976833 7.906498s-3.376535 21.983643-1.122974 21.983643c2.253561 0 7.891271 3.380342 7.891271 3.380342-14.054305 43.750305-15.938617 85.650558-3.052966 125.297249l30.430691-1.385635 19.969904-172.386023-14.655763-93.564669-1.12678-18.036104-5.07432 0.209368-2.580937-7.537249-4.746944-12.961784-131.894245 7.891271z" fill="#2F2E41" p-id="4283"></path><path d="M451.915182 963.507866a1.648297 1.648297 0 0 1-1.636877 1.644491H62.551554a1.644491 1.644491 0 1 1 0-3.288982h387.715331a1.636877 1.636877 0 0 1 1.648297 1.636878v0.007613z" fill="#E2E9F4" p-id="4284"></path><path d="M198.994796 322.727494m-39.334543 0a39.334543 39.334543 0 1 0 78.669085 0 39.334543 39.334543 0 1 0-78.669085 0Z" fill="#FFC6A0" p-id="4285"></path><path d="M225.965204 277.317472c-2.816952-0.087554-1.850052-5.401695-4.122646-7.095673a5.534929 5.534929 0 0 1-10.613056 0.605264 8.412788 8.412788 0 0 0-5.344595-5.60345c-0.140848 4.925859-3.863792 9.200773-8.310007 11.324907-4.442409 2.131747-9.512922 2.481963-14.438781 2.55429-4.925859 0.076134-9.924045-0.091361-14.701442 1.115361s-9.425368 4.0389-11.465755 8.526989c-2.040387 4.480476-0.58623 10.658736 3.879019 12.744803-3.460283 0.015227-6.395242 2.870245-7.586737 6.113546a24.286691 24.286691 0 0 0-0.749918 10.26284c0.970706 12.721963 3.338468 26.414632 12.600149 35.18525 7.061413 6.68455 17.164372 9.379688 26.886662 9.34162 9.72229-0.038067 8.013086-0.932639 17.411806-3.414602 0 0 8.938112-25.619033 6.684551-28.14287-2.245948-2.52003-4.11884-5.744297-3.711525-9.097992 0.407316-3.353695 4.012253-6.357175 7.141354-5.081933-0.525323-1.343762-0.921219-1.59881-1.172461-1.534097 0.159881-0.380669 0.296922-0.772758 0.418736-1.168654a13.30058 13.30058 0 0 1 8.302394-8.808684 10.316134 10.316134 0 0 1 11.27542 3.414602c10.293294-9.65377 3.909472-30.758067-12.383168-31.245324z" fill="#2F2E41" p-id="4286"></path><path d="M249.947361 491.900669l-90.762945-26.10629-8.264327-30.78852a24.861502 24.861502 0 0 1 1.922379-26.171004c7.746617-10.495048 13.803063-0.072327 24.800595 6.947212 19.277086 1.362796 67.393665 17.826736 86.921993 36.88684l-1.537904 11.720803L249.947361 491.900669z" fill="#FFFFFF" p-id="4287"></path><path d="M174.993606 412.790007l-1.454156-1.119167-5.036253-3.958959-2.055613-1.549323-0.548164-0.38067c-2.858825-1.903346-5.192327-2.679911-7.525829-2.234527-2.207881 0.426349-4.255881 1.956639-6.296268 4.720297l-0.593843 0.852699a25.820788 25.820788 0 0 0-1.408476 26.327078l8.329041 31.115896 92.053412 26.471732 13.430008-28.238037 1.686364-12.474528-1.309502-1.248595c-9.265487-8.565056-25.569546-17.38516-42.379896-24.187717l-3.608743-1.427509-3.604937-1.358989c-13.216833-4.861145-26.167197-8.279554-35.683926-9.162707l-1.027806-0.083747 0.197948 0.125621a54.416654 54.416654 0 0 1-3.163361-2.188848z m-10.247613-5.435955l7.971211 6.102126c1.560743 1.202914 2.980639 2.211688 4.415763 3.129101l0.441576 0.144654 1.256208 0.102781c7.792297 0.723271 17.975197 3.197621 28.710067 6.783524l3.593517 1.233368c19.863316 7.008119 40.9029 17.514587 51.82049 27.60232l0.601458 0.57481-1.47319 11.237353-12.653442 26.494573-89.464863-25.729428-8.127286-30.267004c-4.137874-7.952178-3.63539-17.301413 1.218141-24.568386l0.567197-0.814632c1.766305-2.390602 3.437442-3.639197 5.10858-3.958959l0.293115-0.064714 1.103941-0.289309c0.49487-0.106587 0.909799-0.091361 1.652104 0.289309l0.624297 0.357829 0.784179 0.51771 1.560743 1.122974z" fill="#2F2E41" p-id="4288"></path><path d="M148.5371 630.182543l-0.201754-0.281695c-10.731063-15.021204 5.405502-51.120059 7.841784-56.354261l-10.25142-3.327048-8.964758-75.85594-6.555123-26.205264a57.534335 57.534335 0 0 1 16.330706-55.75661l15.150632-14.29032 18.42058-27.252104h29.699807l10.1829 19.235212a43.289695 43.289695 0 0 1 33.495078 44.195688l-2.310662 50.453888 9.037085 62.810409 0.003807 11.370588 15.687376 25.718007 3.418408 15.94623c1.412283 1.865279 10.74629 14.31316 10.74629 17.712536 0 0.510097-0.376862 1.004967-1.183881 1.55313-6.360981 4.305368-41.519584 13.087405-57.081338 6.859658-16.574335-6.623643-82.46055 3.311822-83.122914 3.418409l-0.342603 0.049487z" fill="#FFFFFF" p-id="4289"></path><path d="M199.223197 486.080238l27.351078 82.251182 42.947093 7.487762-5.466409-8.507955-19.692015-38.797799z" fill="#000000" opacity=".1" p-id="4290"></path><path d="M210.578558 369.907628h-30.777101l-18.702275 27.674647-15.017398 14.122825a58.486007 58.486007 0 0 0-16.600981 56.681636l6.555123 26.205264 9.014245 76.347004 9.813651 3.182394-0.411123 0.917412c-0.445383 1.01258-0.921219 2.112714-1.408476 3.292789l-1.004966 2.466736a143.763509 143.763509 0 0 0-5.641517 17.01591c-3.707717 14.30174-3.795271 25.698974 1.161041 32.64238l0.54055 0.757531 3.406989-0.50629 5.340788-0.734691 5.572996-0.723272c9.851717-1.237175 19.730082-2.272595 29.003182-2.969219l4.457636-0.308342 3.304208-0.194141 3.182394-0.156075 3.052967-0.118007 2.927345-0.076134 2.790305-0.038067 2.660878 0.003807 1.275241 0.019033 2.447703 0.064714 1.168654 0.049487 2.230721 0.133234 2.082261 0.175108c3.346082 0.327375 6.052639 0.837472 8.066379 1.545517l0.578617 0.216981c13.403361 5.367435 48.584803-0.601457 57.968297-6.954825 1.043033-0.708045 1.602617-1.442736 1.602617-2.341115 0-1.115361-0.708045-2.855019-2.017546-5.177101l-0.856506-1.457962a72.707807 72.707807 0 0 0-0.48345-0.780372l-1.065873-1.663524a124.227569 124.227569 0 0 0-2.961606-4.351049l-1.781532-2.474349-1.648297-2.215495-3.368922-15.740669-15.668342-25.782721-0.003807-11.104119-9.044699-62.94745 2.314469-50.271167 0.038067-1.142007a44.241368 44.241368 0 0 0-33.156283-43.754112l-0.689011-0.167494-10.247613-19.36464z m-1.149621 1.903346l9.920238 18.728922 0.628104 0.48345a42.338022 42.338022 0 0 1 32.75658 43.224981l-2.306855 50.450082 9.044699 62.99313-0.007614 11.22974 0.140848 0.49487 15.683569 25.721814 3.300401 15.649308 0.175108 0.376863 1.751078 2.360149 0.510097 0.696624c1.271435 1.751078 2.493383 3.502156 3.608743 5.1771l1.03542 1.583584 0.925026 1.476996 0.799405 1.351376 0.354023 0.628104 0.605264 1.142007c0.624297 1.252401 0.963093 2.185041 0.963093 2.721785 0 0.121814-0.190335 0.376862-0.768952 0.761338-3.517383 2.386796-11.054632 4.743138-19.669175 6.402855l-2.752238 0.502483-2.801725 0.44919c-11.290647 1.693978-23.312178 2.048-30.141383-0.281695l-0.826052-0.304536c-2.455316-0.982126-5.968892-1.640684-10.430334-2.006126l-2.306855-0.156074-1.210528-0.060907-2.539063-0.087554c-0.43777-0.007613-0.879346-0.019033-1.328536-0.02284l-2.763658-0.015227c-0.47203 0-0.951673 0-1.435122 0.007613l-2.98064 0.053294-1.545516 0.038067-3.190008 0.121814-3.330855 0.159881-3.464089 0.205561-1.777725 0.114201-2.771271 0.201755c-7.978825 0.597651-16.399227 1.446543-24.861502 2.459122l-8.782037 1.103941-4.815465 0.647137-3.848565 0.555777 0.133234 0.197948c-4.529963-6.341948-4.446216-17.259539-0.867926-31.054989 1.328535-5.116193 3.068193-10.354201 5.0629-15.500847l1.004967-2.535257 0.491063-1.195301 0.944059-2.219301 0.883153-1.990899 0.867925-1.876699-10.696803-3.471703-8.892431-75.254483-6.577963-26.323272a56.582662 56.582662 0 0 1 16.060432-54.831583l15.150632-14.29032 18.272118-26.993249h28.618707z" fill="#2F2E41" p-id="4291"></path><path d="M338.97826 582.903435L278.280565 536.336178s-25.767494-37.838513-43.167881-47.652163l-24.180104 18.786022 31.797294 47.515123 82.96684 47.176327a13.521368 13.521368 0 1 0 13.281546-19.261859z" fill="#FFC6A0" p-id="4292"></path><path d="M240.453472 556.858052L194.788401 481.812937l2.436283-30.659093a24.861502 24.861502 0 0 1 17.586915-19.47884c12.554468-3.524996 10.936625 8.420401 15.306706 20.708401 14.377874 12.912297 42.250468 55.448268 45.961992 82.491004l-8.412788 8.298587-27.217844 13.685056z" fill="#FFFFFF" p-id="4293"></path><path d="M231.774216 452.482379l-0.776565-0.715658-0.373056-1.09252-0.411123-1.324729-0.403509-1.419896-0.635718-2.500996-0.963093-4.004639-0.426349-1.686365-0.395896-1.446543-0.380669-1.237174c-0.620491-1.903346-1.237175-3.075807-2.135554-4.225428-2.173621-2.767465-5.432149-3.502156-10.26284-2.146974l-0.95548 0.296922a25.820788 25.820788 0 0 0-17.312832 19.92803l-2.443896 30.758067 0.137041 0.571004 46.118066 75.791226 28.002023-14.077145 8.991405-8.81249-0.064714-0.47203c-3.269948-23.803242-27.884015-65.817695-45.307241-82.182662zM275.124818 534.45948l-8.066379 7.967405-26.190038 13.114052L195.816208 481.504595l2.409636-30.350751a23.886989 23.886989 0 0 1 16.003331-18.36348l0.913606-0.281695c4.122647-1.157234 6.577963-0.605264 8.230067 1.49603 0.685204 0.875539 1.195301 1.827212 1.709204 3.311821l0.342602 1.069681 0.361636 1.263821 0.190335 0.711852 0.62049 2.497189 0.727078 3.041547 0.441577 1.758691 0.209368 0.787985 0.414929 1.457963 0.205561 0.689011 0.441576 1.351376 0.239822 0.685204 0.258855 0.384476c16.836996 15.120178 41.47771 56.601695 45.455703 80.595271l0.129427 0.845086z" fill="#2F2E41" p-id="4294"></path><path d="M834.381086 186.527881m-95.167287 0a95.167286 95.167286 0 1 0 190.334573 0 95.167286 95.167286 0 1 0-190.334573 0Z" fill="#A26EF4" p-id="4295"></path><path d="M833.669234 140.847584a26.64684 26.64684 0 0 1 26.64684 26.64684v7.613383h3.806692a11.420074 11.420074 0 0 1 11.420074 11.420074v30.453532a11.420074 11.420074 0 0 1-11.420074 11.420074h-60.907063a11.420074 11.420074 0 0 1-11.420075-11.420074v-30.453532a11.420074 11.420074 0 0 1 11.420075-11.420074h3.806691v-7.613383a26.64684 26.64684 0 0 1 26.64684-26.64684z m0 9.516728a17.130112 17.130112 0 0 0-17.114885 16.323093l-0.019033 0.807019v7.613383h34.260223v-7.613383a17.130112 17.130112 0 0 0-16.323093-17.111078l-0.807018-0.019034z" fill="#FFFFFF" p-id="4296"></path></svg>