<svg t="1650535798151" class="icon" viewBox="0 0 1093 1024" version="1.1" xmlns="http://www.w3.org/2000/svg" p-id="4237" width="48" height="48"><path d="M406.109091 404.945455c4.654545 1.163636 7.369697 6.206061 5.818182 10.472727l-19.006061 65.939394c-1.163636 4.654545-6.206061 7.369697-10.472727 5.818182-4.654545-1.163636-7.369697-6.206061-5.818182-10.472728l19.006061-65.939394c1.163636-4.654545 5.818182-7.369697 10.472727-5.818181zM704.775758 381.284848c6.593939-1.939394 13.187879 1.939394 15.127272 8.533334l33.745455 117.915151c1.939394 6.593939-1.939394 13.187879-8.533333 15.127273-6.593939 1.939394-13.187879-1.939394-15.127273-8.533333l-33.745455-117.915152c-1.551515-6.206061 1.939394-13.187879 8.533334-15.127273zM151.660606 918.49697l-7.369697-84.169697-139.636364 12.024242-2.715151-30.254545 123.345454-198.59394 39.563637-3.490909 16.290909 186.181818 60.89697-5.430303 2.715151 30.254546-60.89697 5.430303 7.369697 84.169697-39.563636 3.878788z m-10.084848-114.424243l-11.636364-131.490909-86.109091 140.024243 97.745455-8.533334z m858.375757 40.339394l-7.369697-84.169697-139.636363 12.024243-2.715152-30.254546 123.345455-198.593939 39.563636-3.490909 16.290909 186.181818 60.89697-5.430303 2.715151 30.254545-60.896969 5.430303 7.369697 84.169697-39.563637 3.878788z m-10.084848-114.424242l-11.636364-131.490909-86.109091 140.024242 97.745455-8.533333z" fill="#D8D8D8" p-id="4238"></path><path d="M478.429091 280.513939h161.745454l149.333334 639.224243c-50.424242-49.648485-127.224242-73.69697-230.012121-72.921212s-177.648485 25.212121-223.418182 72.921212l142.351515-639.224243z" fill="#DAE6F7" p-id="4239"></path><path d="M335.301818 928.659394a228.072727 92.70303 0 1 0 456.145455 0 228.072727 92.70303 0 1 0-456.145455 0Z" fill="#A0C7FD" p-id="4240"></path><path d="M563.975758 35.684848l-1.551516 114.424243 16.29091-0.775758 0.387878-129.163636z" fill="#D8D8D8" p-id="4241"></path><path d="M457.69697 184.242424a113.260606 83.393939 0 1 0 226.521212 0 113.260606 83.393939 0 1 0-226.521212 0Z" fill="#B2BECD" p-id="4242"></path><path d="M262.206061 322.327273a305.260606 117.527273 0 1 0 610.521212 0 305.260606 117.527273 0 1 0-610.521212 0Z" fill="#E8E8E9" p-id="4243"></path><path d="M550.787879 20.945455a20.945455 20.945455 0 1 0 41.890909 0 20.945455 20.945455 0 1 0-41.890909 0Z" fill="#B2BECD" p-id="4244"></path><path d="M95.030303 360.339394C100.460606 309.527273 306.424242 268.412121 560.09697 268.412121c256.775758 0 465.066667 42.278788 465.066666 94.254546 0 1.163636 0 2.715152-0.387878 3.878788-138.472727-9.309091-318.448485-15.127273-515.49091-15.127273-152.048485 0-293.624242 3.10303-414.254545 8.921212zM491.830303 397.187879c6.593939 1.551515 10.860606 7.757576 9.309091 14.739394l-25.6 119.854545c-1.551515 6.593939-7.757576 10.860606-14.739394 9.309091-6.593939-1.551515-10.860606-7.757576-9.309091-14.739394l25.6-119.854545c1.551515-6.206061 8.145455-10.472727 14.739394-9.309091zM456.533333 162.909091h224.19394c42.278788 0 76.412121 18.618182 76.412121 41.115151v26.763637H380.121212v-26.763637c0-22.49697 34.133333-41.115152 76.412121-41.115151z" fill="#D8D8D8" p-id="4245"></path><path d="M554.666667 176.09697h27.151515c3.878788 0 7.369697 3.490909 7.369697 7.369697V209.454545c0 3.878788-3.490909 7.369697-7.369697 7.369697h-27.151515c-3.878788 0-7.369697-3.490909-7.369697-7.369697v-25.987878c0-4.266667 3.490909-7.369697 7.369697-7.369697zM489.115152 176.09697h27.151515c3.878788 0 7.369697 3.490909 7.369697 7.369697V209.454545c0 3.878788-3.490909 7.369697-7.369697 7.369697h-27.151515c-3.878788 0-7.369697-3.490909-7.369697-7.369697v-25.987878c0-4.266667 3.10303-7.369697 7.369697-7.369697zM430.157576 183.466667l16.678788-4.266667c4.654545-1.163636 9.69697 1.551515 10.860606 6.206061 0 0.775758 0.387879 1.551515 0.387878 2.327272V217.212121h-42.278787v-15.127273c0-8.921212 5.818182-16.290909 14.351515-18.618181zM705.163636 183.466667l-16.678788-4.266667c-4.654545-1.163636-9.69697 1.551515-10.860606 6.206061-0.387879 0.775758-0.387879 1.551515-0.387878 2.327272V217.212121h41.890909v-15.127273c0-8.921212-5.818182-16.290909-13.963637-18.618181zM620.606061 176.09697h27.151515c3.878788 0 7.369697 3.490909 7.369697 7.369697V209.454545c0 3.878788-3.490909 7.369697-7.369697 7.369697h-27.151515c-3.878788 0-7.369697-3.490909-7.369697-7.369697v-25.987878c0-4.266667 3.10303-7.369697 7.369697-7.369697z" fill="#B2BECD" p-id="4246"></path><path d="M567.466667 830.448485c-53.915152 0-104.339394-45.769697-116.751515-110.545455-6.593939-34.133333-1.939394-68.266667 13.187878-96.581818 15.90303-29.478788 41.115152-48.872727 71.369697-54.690909 60.509091-11.636364 121.018182 36.848485 134.981818 108.606061 13.963636 71.757576-24.048485 139.636364-84.557575 151.272727-6.206061 1.163636-12.412121 1.939394-18.230303 1.939394z m-13.963637-226.909091c-3.878788 0-7.757576 0.387879-11.248485 1.163636-19.006061 3.878788-35.29697 16.678788-45.769697 36.072728-11.248485 20.945455-14.739394 46.545455-9.696969 72.145454 10.084848 51.587879 51.2 87.272727 91.927273 79.515152s65.551515-56.242424 55.466666-108.218182c-9.309091-46.933333-44.218182-80.678788-80.678788-80.678788z" fill="#FFFFFF" p-id="4247"></path></svg>