<?xml version="1.0" standalone="no"?><!DOCTYPE svg PUBLIC "-//W3C//DTD SVG 1.1//EN" "http://www.w3.org/Graphics/SVG/1.1/DTD/svg11.dtd"><svg t="1647946073917" class="icon" viewBox="0 0 1024 1024" version="1.1" xmlns="http://www.w3.org/2000/svg" p-id="4645" xmlns:xlink="http://www.w3.org/1999/xlink" width="48" height="48"><defs><style type="text/css"></style></defs><path d="M82.5 512l202.175-202.175L512 82.5l215.571 215.571L941.5 512 512 941.5 299.12 699.243 82.5 512z" fill="#E7402E" p-id="4646"></path><path d="M311.986 726.697a14.948 14.948 0 0 1-10.606-4.394c-11.548-11.548-29.973-28.539-54.762-50.5-6.201-5.493-6.774-14.974-1.281-21.174s14.974-6.775 21.175-1.281c25.24 22.36 44.108 39.769 56.082 51.742 5.858 5.857 5.858 15.355 0 21.213a14.954 14.954 0 0 1-10.608 4.394z" fill="#3D100B" p-id="4647"></path><path d="M427.038 652.033c-27.047-2.07-40.572-6.049-40.572-11.934v-4.772c0-10.024 10.344-25.936 31.025-47.732v-2.386c0-2.23-4.375-3.819-13.127-4.773-4.771-4.616-8.748-10.979-11.932-19.093-12.889 0-29.594-11.933-50.119-35.799l-1.193-5.966c0-7.004 10.74-40.416 32.219-100.237v-1.193l-3.58-11.933v-3.58c0-4.933 5.967-10.501 17.9-16.706 0-4.295 4.377-7.477 13.127-9.546h9.545c5.572 0 16.311 5.966 32.219 17.899h2.387l53.699-17.899h17.898c1.432 0 5.012-4.375 10.74-13.126h4.773c12.888 0 21.241 21.08 25.059 63.244l-2.387 26.252 1.193 4.773-4.773 35.798c0 7.16 8.353 15.908 25.059 26.253 3.979-1.593 5.966-3.979 5.966-7.16l-1.193-78.757v-8.353l2.387-19.093v-28.639l-2.387-22.672v-2.387c1.275-10.34 6.049-15.513 14.32-15.513h7.16c8.912 0 16.866 10.345 23.866 31.026 5.571 16.706 8.353 27.841 8.353 33.412l-10.74 34.605-8.353 39.379 4.773 5.966c2.387 0 11.538-9.546 27.446-28.639 27.05-22.277 50.916-33.412 71.597-33.412h2.387c11.933 0.794 17.899 2.387 17.899 4.773v2.386l-29.832 13.126c-24.022 20.204-41.127 38.502-51.312 54.891-24.66 30.228-39.774 55.686-45.345 76.37l2.387 3.58 48.925-23.865c20.208-5.571 32.54-8.354 36.992-8.354 15.912 0 23.866 5.967 23.866 17.899 0 12.41-7.954 25.138-23.866 38.186h-2.387c-1.588 0-2.387-1.193-2.387-3.58l3.58-11.933v-1.193l-3.58-3.58h-1.193c-10.501 0-37.946 9.546-82.337 28.639l-21.479 3.58c-16.706 0-25.059-7.559-25.059-22.673-1.588 0-2.387-2.785-2.387-8.353l4.773-17.899v-3.58c-13.044-13.842-24.582-29.354-34.605-46.538-2.864-2.387-5.646-3.58-8.353-3.58-27.046 4.296-40.572 8.67-40.572 13.127v2.386c1.592 1.909 12.332 6.683 32.219 14.32 6.365 4.93 9.546 16.467 9.546 34.604 9.069 20.842 19.014 33.569 29.832 38.186l4.773 5.967-2.387 2.387h-2.387c-21.319 0-42.399-17.899-63.244-53.698l-1.193-1.193h-3.58c-12.566 0-23.307 9.941-32.219 29.832-1.75 0-4.93 6.361-9.547 19.093v3.58l5.967 1.193c16.549-4.773 29.676-7.16 39.379-7.16h11.932c4.141 0 6.526 1.193 7.161 3.58v1.193c-0.794 2.387-19.887 9.546-57.278 21.479-10.339 9.071-19.487 14.239-27.444 15.515z m-14.32 59.664c-18.295-3.024-27.445-8.991-27.445-17.899l-1.193-4.773c0-10.184 23.471-22.116 70.404-35.799l46.539-4.772H522.5c8.913 0 20.846 8.748 35.799 26.252h1.193c1.592 0 2.387-1.193 2.387-3.58l-2.387-21.479c5.411-9.547 12.57-14.319 21.479-14.319l25.059 5.966c3.979 0 11.538-3.58 22.673-10.739h1.193l1.193 1.193v2.387c-11.933 13.364-17.899 21.718-17.899 25.059l15.513 39.379c0 1.588-1.193 2.387-3.58 2.387-9.863-3.979-26.569-7.16-50.118-9.547l-13.126-14.319c-5.09 5.567-10.263 8.354-15.513 8.354l-14.32-3.58h-10.739c-13.205 0-31.104 4.772-53.697 14.319-21.636 10.338-39.935 15.51-54.892 15.51z m41.765-217.179v-4.773c0-5.571-2.387-8.353-7.16-8.353l-34.605 15.513h-4.773l-4.773-3.58c-2.385 0.634-3.975 2.227-4.771 4.773 0.477 12.728 2.068 19.093 4.771 19.093h1.193l16.707-8.354c22.277-6.365 33.411-11.138 33.411-14.319z m-8.353-45.345v-2.387c-11.771-11.933-20.92-17.899-27.445-17.899-5.09 0-8.67 7.555-10.74 22.672-1.588 0-2.387 2.782-2.387 8.353v1.193l3.58 3.58h1.193c23.709-7.957 35.643-13.125 35.799-15.512z m31.025 96.657c-1.908-3.024-3.498-8.99-4.773-17.899-3.658 0.478-19.568 7.637-47.73 21.479v5.966l7.16 1.193c30.23-1.752 45.343-5.332 45.343-10.739z m39.379-114.556l-5.967-28.639-4.773-2.386c-15.908 3.181-23.865 7.954-23.865 14.319 1.275 16.706 6.443 25.059 15.514 25.059h10.738c5.571 0 8.353-2.786 8.353-8.353z m2.387 59.665l2.387-3.58c-1.272-23.071-4.453-34.605-9.546-34.605-16.706 3.341-25.059 8.51-25.059 15.513-1.588 0-2.387 3.975-2.387 11.933v5.966l4.773 4.773 15.512-1.193 14.32 1.193z" fill="#F4DD50" p-id="4648"></path><path d="M594.927 267.07a14.953 14.953 0 0 1-10.607-4.393l-86.246-86.246c-5.858-5.858-5.858-15.355 0-21.213 5.858-5.858 15.355-5.858 21.213 0l86.246 86.246c5.858 5.858 5.858 15.355 0 21.213a14.953 14.953 0 0 1-10.606 4.393zM651.43 323.572a14.95 14.95 0 0 1-10.607-4.394l-16.999-16.999c-5.858-5.858-5.858-15.355 0-21.213 5.858-5.858 15.355-5.858 21.213 0l16.999 16.999c5.858 5.858 5.858 15.355 0 21.213a14.95 14.95 0 0 1-10.606 4.394z" fill="#FFFFFF" p-id="4649"></path><path d="M832.111 604.051L526.052 776.469s29.149 121.829-26.914 152.169h25.724l307.249-324.587z" fill="#DF6F69" p-id="4650"></path><path d="M512 956.5a14.999 14.999 0 0 1-11.538-5.415c-0.925-1.113-93.236-112.158-157.221-183.737-5.521-6.176-4.99-15.659 1.186-21.18 6.177-5.521 15.659-4.989 21.18 1.186 51.526 57.641 121.197 140.585 147.395 171.929l406.659-406.66c-38.007-33.938-155.269-139.044-199.927-183.703-46.548-46.548-169.499-181.867-207.636-223.959-36.404 40.885-150.707 168.792-196.74 214.824-44.81 44.813-168.923 155.498-209.858 191.864 21.863 18.271 67.205 56.328 111.685 94.667 6.275 5.408 6.977 14.88 1.569 21.155-5.409 6.275-14.88 6.978-21.155 1.569-61.211-52.76-124.056-104.98-124.683-105.501a15 15 0 0 1-0.358-22.772c1.688-1.494 169.383-149.99 221.587-202.193C347.45 245.269 499.252 74.265 500.78 72.544a14.998 14.998 0 0 1 11.152-5.044h0.067c4.241 0 8.285 1.795 11.13 4.944 1.635 1.81 164.125 181.572 217.818 235.266 51.88 51.88 208.942 191.678 210.522 193.083a15 15 0 0 1 0.636 21.814l-429.5 429.5A14.996 14.996 0 0 1 512 956.5z" fill="#3D100B" p-id="4651"></path></svg>