<svg xmlns="http://www.w3.org/2000/svg" fill="currentColor" viewBox="0 0 24 24">
  <path d="M18 14.25h-4.5v1.5H18v-1.5zM22.5 11.25h-9v1.5h9v-1.5zM22.5 8.25h-9v1.5h9v-1.5zM10.5 15.75v-1.5H6.75v-1.5h-1.5v1.5H1.5v1.5h6.161A6.444 6.444 0 016 18.733a6.954 6.954 0 01-1.085-1.483H3.25a8.143 8.143 0 001.609 2.473 10.995 10.995 0 01-2.609 1.372l.527 1.405a12.314 12.314 0 003.218-1.752A12.364 12.364 0 009.223 22.5l.527-1.405a11.002 11.002 0 01-2.608-1.37A7.735 7.735 0 009.19 15.75H10.5zM8.375 9.75H10L6.562 1.5H4.938L1.5 9.75h1.625l.625-1.5h4l.625 1.5zm-4-3l1.375-3.3 1.375 3.3h-2.75z"/>
</svg>
