<svg width="720" height="900" viewBox="0 0 720 900" fill="none" xmlns="http://www.w3.org/2000/svg">
<path d="M268.922 116.351C274.039 116.351 278.188 112.203 278.188 107.086C278.188 101.968 274.039 97.8202 268.922 97.8202C263.805 97.8202 259.657 101.968 259.657 107.086C259.657 112.203 263.805 116.351 268.922 116.351Z" fill="#338FFF"/>
<path d="M159.985 290.467C164.233 290.467 167.676 287.024 167.676 282.777C167.676 278.53 164.233 275.087 159.985 275.087C155.738 275.087 152.295 278.53 152.295 282.777C152.295 287.024 155.738 290.467 159.985 290.467Z" fill="#338FFF"/>
<path d="M231.507 822.031C235.754 822.031 239.198 818.588 239.198 814.341C239.198 810.094 235.754 806.651 231.507 806.651C227.26 806.651 223.817 810.094 223.817 814.341C223.817 818.588 227.26 822.031 231.507 822.031Z" fill="#338FFF"/>
<path fill-rule="evenodd" clip-rule="evenodd" d="M359.33 211.885C283.791 211.885 214.472 238.494 160.269 282.896L159.619 282.103C213.999 237.556 283.545 210.859 359.33 210.859C533.568 210.859 674.83 352.122 674.83 526.36C674.83 700.597 533.568 841.86 359.33 841.86C313.52 841.86 269.96 832.105 230.704 814.531L231.123 813.595C270.25 831.112 313.667 840.834 359.33 840.834C533.001 840.834 673.804 700.031 673.804 526.36C673.804 352.688 533.001 211.885 359.33 211.885Z" fill="#338FFF"/>
<path fill-rule="evenodd" clip-rule="evenodd" d="M134.289 306.672C78.9432 363.356 44.855 440.901 44.855 526.36C44.855 647.244 113.032 752.188 213.016 804.817L212.538 805.725C112.23 752.925 43.8296 647.64 43.8296 526.36C43.8296 440.623 78.03 362.824 133.555 305.956L134.289 306.672Z" fill="#338FFF"/>
<path fill-rule="evenodd" clip-rule="evenodd" d="M285.285 158.443C113.797 158.443 -31.9971 268.426 -85.3958 421.697L-86.852 421.189C-33.2441 267.319 113.121 156.901 285.285 156.901C502.878 156.901 679.267 333.291 679.267 550.884C679.267 768.477 502.878 944.867 285.285 944.867C67.6913 944.867 -108.698 768.477 -108.698 550.884C-108.698 520.545 -105.262 490.996 -98.7827 462.631L-97.2794 462.974C-103.733 491.228 -107.156 520.662 -107.156 550.884C-107.156 767.626 68.5429 943.325 285.285 943.325C502.026 943.325 677.725 767.626 677.725 550.884C677.725 334.142 502.026 158.443 285.285 158.443Z" fill="#338FFF"/>
<path fill-rule="evenodd" clip-rule="evenodd" d="M211.24 105.038C-48.5731 105.038 -259.169 315.674 -259.169 575.486C-259.169 835.299 -48.5732 1045.9 211.24 1045.9C299.209 1045.9 381.511 1021.74 451.932 979.723L452.984 981.488C382.254 1023.69 299.59 1047.95 211.24 1047.95C-49.708 1047.95 -261.224 836.434 -261.224 575.486C-261.224 314.539 -49.7081 102.983 211.24 102.983C230.837 102.983 250.159 104.169 269.126 106.5L268.876 108.539C249.992 106.218 230.754 105.038 211.24 105.038ZM681.649 575.447C681.649 351.672 525.423 164.405 316.086 116.762L316.542 114.758C526.794 162.609 683.703 350.693 683.703 575.447C683.703 736.426 603.173 878.596 480.249 963.904L479.077 962.216C601.472 877.275 681.649 735.724 681.649 575.447Z" fill="#338FFF"/>
<path fill-rule="evenodd" clip-rule="evenodd" d="M360 2.58545C12.9181 2.58545 -268.415 283.918 -268.415 631.001C-268.415 725.279 -247.679 814.714 -210.496 894.941L-212.826 896.021C-250.162 815.462 -270.982 725.659 -270.982 631.001C-270.982 282.5 11.5002 0.0180664 360 0.0180664C534.507 0.0180664 692.501 70.8573 806.718 185.35L804.9 187.163C691.146 73.1337 533.798 2.58545 360 2.58545Z" fill="#338FFF"/>
</svg>
